STARTFONT 2.1
FONT -Monotype-Plantin-Bold-I-Normal--17-120-100-100-P-101-iso8859-5
SIZE 12 100 100
FONTBOUNDINGBOX 23 19 -3 -4

STARTPROPERTIES 24
FOUNDRY "Monotype"
FAMILY_NAME "Plantin"
WEIGHT_NAME "Bold"
SLANT "I"
SETWIDTH_NAME "Normal"
ADD_STYLE_NAME ""
PIXEL_SIZE 17
POINT_SIZE 120
RESOLUTION_X 100
RESOLUTION_Y 100
SPACING "P"
AVERAGE_WIDTH 101
CHARSET_REGISTRY "iso8859"
CHARSET_ENCODING "5"
FACE_NAME "Plantin Bold Inclined ISO Latin Cyrillic"
_DEC_DEVICE_FONTNAMES "PS=plantin-bin-latcyrillic"
COPYRIGHT "Copyright (c) 1994 Monotype Typography Ltd."
CAP_HEIGHT 13
X_HEIGHT 8
WEIGHT 10
QUAD_WIDTH 12
DEFAULT_CHAR 160
FONT_DESCENT 4
FONT_ASCENT 16
ENDPROPERTIES

CHARS 191

STARTCHAR space
ENCODING 32
SWIDTH 250 0
DWIDTH 4 0
BBX 0 0 0 0
BITMAP
ENDCHAR

STARTCHAR exclam
ENCODING 33
SWIDTH 365 0
DWIDTH 6 0
BBX 5 12 1 0
BITMAP
18
18
30
30
30
60
60
40
00
00
C0
C0
ENDCHAR

STARTCHAR quotedbl
ENCODING 34
SWIDTH 552 0
DWIDTH 9 0
BBX 7 6 1 6
BITMAP
22
66
66
CC
CC
88
ENDCHAR

STARTCHAR numbersign
ENCODING 35
SWIDTH 500 0
DWIDTH 9 0
BBX 9 12 0 0
BITMAP
1100
1100
1100
7F80
2200
2200
2200
2200
FF00
4400
4400
4400
ENDCHAR

STARTCHAR dollar
ENCODING 36
SWIDTH 542 0
DWIDTH 9 0
BBX 9 13 0 -1
BITMAP
0200
0F00
1B80
3200
3400
1C00
0E00
0F00
0B00
1300
D600
7C00
2000
ENDCHAR

STARTCHAR percent
ENCODING 37
SWIDTH 833 0
DWIDTH 14 0
BBX 13 12 1 0
BITMAP
3820
6C40
CCC0
CC80
D900
7300
0270
04D8
0D98
0998
11B0
30E0
ENDCHAR

STARTCHAR ampersand
ENCODING 38
SWIDTH 958 0
DWIDTH 16 0
BBX 16 12 1 0
BITMAP
0780
0CC0
1846
1801
1CE1
71FE
E11C
C110
C090
6020
7040
1F80
ENDCHAR

STARTCHAR quoteright
ENCODING 39
SWIDTH 365 0
DWIDTH 6 0
BBX 4 5 1 7
BITMAP
60
70
30
20
C0
ENDCHAR

STARTCHAR parenleft
ENCODING 40
SWIDTH 437 0
DWIDTH 7 0
BBX 7 16 1 -4
BITMAP
02
0C
18
30
30
60
60
C0
C0
C0
C0
C0
C0
C0
40
20
ENDCHAR

STARTCHAR parenright
ENCODING 41
SWIDTH 437 0
DWIDTH 7 0
BBX 7 16 -1 -4
BITMAP
08
04
06
06
06
06
06
06
06
0C
0C
18
18
30
60
80
ENDCHAR

STARTCHAR asterisk
ENCODING 42
SWIDTH 510 0
DWIDTH 9 0
BBX 8 8 1 4
BITMAP
08
08
FF
18
3C
5A
91
10
ENDCHAR

STARTCHAR plus
ENCODING 43
SWIDTH 667 0
DWIDTH 11 0
BBX 9 9 1 2
BITMAP
0800
0800
0800
0800
FF80
0800
0800
0800
0800
ENDCHAR

STARTCHAR comma
ENCODING 44
SWIDTH 365 0
DWIDTH 6 0
BBX 4 5 1 -3
BITMAP
60
70
30
20
C0
ENDCHAR

STARTCHAR minus
ENCODING 45
SWIDTH 667 0
DWIDTH 11 0
BBX 9 1 1 6
BITMAP
FF80
ENDCHAR

STARTCHAR period
ENCODING 46
SWIDTH 292 0
DWIDTH 5 0
BBX 2 2 2 0
BITMAP
C0
C0
ENDCHAR

STARTCHAR slash
ENCODING 47
SWIDTH 281 0
DWIDTH 5 0
BBX 8 12 -1 0
BITMAP
01
01
02
06
04
08
18
10
20
60
40
80
ENDCHAR

STARTCHAR zero
ENCODING 48
SWIDTH 542 0
DWIDTH 9 0
BBX 8 12 1 0
BITMAP
0E
33
63
63
63
C3
C3
C6
C6
C6
CC
70
ENDCHAR

STARTCHAR one
ENCODING 49
SWIDTH 542 0
DWIDTH 9 0
BBX 6 12 2 0
BITMAP
04
3C
18
18
18
30
30
30
60
60
60
F0
ENDCHAR

STARTCHAR two
ENCODING 50
SWIDTH 542 0
DWIDTH 9 0
BBX 10 12 -1 0
BITMAP
0F80
11C0
00C0
00C0
00C0
0180
0300
0C00
1000
2080
7F80
FF00
ENDCHAR

STARTCHAR three
ENCODING 51
SWIDTH 542 0
DWIDTH 9 0
BBX 9 12 0 0
BITMAP
0F00
1380
0180
0180
0300
1E00
0600
0300
0300
0300
8600
7C00
ENDCHAR

STARTCHAR four
ENCODING 52
SWIDTH 542 0
DWIDTH 9 0
BBX 9 12 0 0
BITMAP
0180
0380
0700
0B00
1300
2600
4600
FF80
FF00
0C00
0C00
0C00
ENDCHAR

STARTCHAR five
ENCODING 53
SWIDTH 542 0
DWIDTH 9 0
BBX 10 12 0 0
BITMAP
0FC0
0F80
0800
1000
3C00
3E00
0700
0300
0300
0300
8600
7C00
ENDCHAR

STARTCHAR six
ENCODING 54
SWIDTH 542 0
DWIDTH 9 0
BBX 9 12 0 0
BITMAP
0180
0600
1800
3000
6000
DC00
E600
C300
C300
C300
6600
3C00
ENDCHAR

STARTCHAR seven
ENCODING 55
SWIDTH 542 0
DWIDTH 9 0
BBX 9 12 0 0
BITMAP
3F80
7F80
8180
0300
0200
0600
0C00
0800
1800
1000
3000
3000
ENDCHAR

STARTCHAR eight
ENCODING 56
SWIDTH 542 0
DWIDTH 9 0
BBX 9 12 0 0
BITMAP
0F00
1180
3080
3080
3980
1F00
3E00
6700
C300
8300
C600
7C00
ENDCHAR

STARTCHAR nine
ENCODING 57
SWIDTH 542 0
DWIDTH 9 0
BBX 9 12 0 0
BITMAP
1E00
3300
6180
6180
6180
3380
1D80
0300
0600
0C00
3000
C000
ENDCHAR

STARTCHAR colon
ENCODING 58
SWIDTH 365 0
DWIDTH 6 0
BBX 3 8 2 0
BITMAP
60
60
00
00
00
00
C0
C0
ENDCHAR

STARTCHAR semicolon
ENCODING 59
SWIDTH 365 0
DWIDTH 6 0
BBX 4 11 1 -3
BITMAP
30
30
00
00
00
00
60
70
30
20
C0
ENDCHAR

STARTCHAR less
ENCODING 60
SWIDTH 667 0
DWIDTH 11 0
BBX 9 7 1 3
BITMAP
0180
0F00
3C00
E000
3C00
0F00
0180
ENDCHAR

STARTCHAR equal
ENCODING 61
SWIDTH 667 0
DWIDTH 11 0
BBX 9 5 1 4
BITMAP
FF80
0000
0000
0000
FF80
ENDCHAR

STARTCHAR greater
ENCODING 62
SWIDTH 667 0
DWIDTH 11 0
BBX 9 7 1 3
BITMAP
C000
7800
1E00
0380
1E00
7800
C000
ENDCHAR

STARTCHAR question
ENCODING 63
SWIDTH 510 0
DWIDTH 9 0
BBX 6 12 2 0
BITMAP
38
6C
0C
0C
1C
78
E0
80
00
00
C0
C0
ENDCHAR

STARTCHAR at
ENCODING 64
SWIDTH 833 0
DWIDTH 14 0
BBX 14 16 0 -4
BITMAP
0780
1860
2010
4008
4368
86C4
8CC4
8D84
9988
9988
9B10
4CE0
4004
2008
1830
07C0
ENDCHAR

STARTCHAR A
ENCODING 65
SWIDTH 708 0
DWIDTH 12 0
BBX 12 12 -1 0
BITMAP
0020
0060
00E0
0160
0260
0460
0460
0FE0
1060
2060
6060
F0F0
ENDCHAR

STARTCHAR B
ENCODING 66
SWIDTH 750 0
DWIDTH 13 0
BBX 12 12 0 0
BITMAP
1FC0
0C60
0C30
1830
1860
1F80
30C0
3060
3060
6060
60C0
FF80
ENDCHAR

STARTCHAR C
ENCODING 67
SWIDTH 750 0
DWIDTH 13 0
BBX 11 12 1 0
BITMAP
07C0
1860
3020
6000
6000
C000
C000
C000
C000
60C0
6180
1F00
ENDCHAR

STARTCHAR D
ENCODING 68
SWIDTH 802 0
DWIDTH 14 0
BBX 13 12 0 0
BITMAP
1FE0
0C30
0C18
1818
1818
1818
3018
3030
3030
6060
61C0
FF00
ENDCHAR

STARTCHAR E
ENCODING 69
SWIDTH 740 0
DWIDTH 13 0
BBX 13 12 0 0
BITMAP
1FF8
0C10
0C10
1800
1840
1FC0
3080
3000
3000
6020
6060
FFC0
ENDCHAR

STARTCHAR F
ENCODING 70
SWIDTH 667 0
DWIDTH 11 0
BBX 12 12 0 0
BITMAP
1FF0
0C20
0C20
1800
1840
1FC0
3080
3000
3000
6000
6000
F000
ENDCHAR

STARTCHAR G
ENCODING 71
SWIDTH 833 0
DWIDTH 14 0
BBX 12 12 1 0
BITMAP
07C0
1860
3020
6000
6000
C000
C0F0
C060
C060
60C0
60C0
1F80
ENDCHAR

STARTCHAR H
ENCODING 72
SWIDTH 844 0
DWIDTH 14 0
BBX 14 12 0 0
BITMAP
1E3C
0C18
0C18
1830
1830
1FF0
3060
3060
3060
60C0
60C0
F1E0
ENDCHAR

STARTCHAR I
ENCODING 73
SWIDTH 417 0
DWIDTH 7 0
BBX 7 12 0 0
BITMAP
1E
0C
0C
18
18
18
30
30
30
60
60
F0
ENDCHAR

STARTCHAR J
ENCODING 74
SWIDTH 396 0
DWIDTH 7 0
BBX 10 16 -3 -4
BITMAP
03C0
0180
0180
0180
0300
0300
0300
0600
0600
0600
0C00
0C00
0C00
1800
9800
7000
ENDCHAR

STARTCHAR K
ENCODING 75
SWIDTH 740 0
DWIDTH 13 0
BBX 13 12 0 0
BITMAP
1E78
0C30
0C40
1880
1900
1A00
3600
3300
3300
6180
61C0
F0E0
ENDCHAR

STARTCHAR L
ENCODING 76
SWIDTH 667 0
DWIDTH 11 0
BBX 10 12 0 0
BITMAP
1E00
0C00
0C00
1800
1800
1800
3000
3000
3000
6040
60C0
FF80
ENDCHAR

STARTCHAR M
ENCODING 77
SWIDTH 979 0
DWIDTH 16 0
BBX 16 12 0 0
BITMAP
1E07
0E0E
0E0E
1616
1626
132C
234C
238C
2318
4318
4218
E23C
ENDCHAR

STARTCHAR N
ENCODING 78
SWIDTH 812 0
DWIDTH 14 0
BBX 15 12 0 0
BITMAP
380E
1804
0C04
0C08
1E08
1308
2310
2190
21A0
40E0
40E0
E070
ENDCHAR

STARTCHAR O
ENCODING 79
SWIDTH 854 0
DWIDTH 15 0
BBX 12 12 2 0
BITMAP
0780
18E0
3060
6030
6030
C030
C030
C060
C060
60C0
7180
1E00
ENDCHAR

STARTCHAR P
ENCODING 80
SWIDTH 677 0
DWIDTH 12 0
BBX 12 12 0 0
BITMAP
1FC0
0C60
0C30
1830
1830
1860
3380
3000
3000
6000
6000
F000
ENDCHAR

STARTCHAR Q
ENCODING 81
SWIDTH 854 0
DWIDTH 15 0
BBX 12 16 2 -4
BITMAP
0780
18E0
3060
6030
6030
C030
C030
C060
C060
60C0
7180
1E00
0C00
0700
01C0
0070
ENDCHAR

STARTCHAR R
ENCODING 82
SWIDTH 781 0
DWIDTH 13 0
BBX 13 12 0 0
BITMAP
1FE0
0C30
0C18
1818
1830
1FE0
3300
3300
3180
6180
60C0
F0E0
ENDCHAR

STARTCHAR S
ENCODING 83
SWIDTH 625 0
DWIDTH 11 0
BBX 9 12 1 0
BITMAP
1F00
3180
6080
7000
3C00
1E00
0700
0300
0300
8300
C600
7C00
ENDCHAR

STARTCHAR T
ENCODING 84
SWIDTH 729 0
DWIDTH 12 0
BBX 12 12 1 0
BITMAP
7FF0
C620
8620
0C00
0C00
0C00
1800
1800
1800
3000
3000
7800
ENDCHAR

STARTCHAR U
ENCODING 85
SWIDTH 792 0
DWIDTH 13 0
BBX 12 12 1 0
BITMAP
7870
3020
3020
6040
6040
6040
6080
C080
C100
C100
E200
7C00
ENDCHAR

STARTCHAR V
ENCODING 86
SWIDTH 719 0
DWIDTH 12 0
BBX 12 12 1 0
BITMAP
F0F0
6060
6040
6080
6100
6200
6200
6400
6800
7000
6000
4000
ENDCHAR

STARTCHAR W
ENCODING 87
SWIDTH 969 0
DWIDTH 16 0
BBX 15 12 2 0
BITMAP
F3CE
6184
6184
6188
6390
6590
65A0
69A0
71C0
6180
6180
4100
ENDCHAR

STARTCHAR X
ENCODING 88
SWIDTH 771 0
DWIDTH 13 0
BBX 13 12 0 0
BITMAP
3C78
1830
1820
0C40
0C80
0700
0600
0B00
1180
2180
60C0
F1E0
ENDCHAR

STARTCHAR Y
ENCODING 89
SWIDTH 677 0
DWIDTH 12 0
BBX 12 12 1 0
BITMAP
F070
6020
3040
3080
1900
1A00
0C00
0C00
0C00
1800
1800
3C00
ENDCHAR

STARTCHAR Z
ENCODING 90
SWIDTH 687 0
DWIDTH 12 0
BBX 11 12 1 0
BITMAP
3FE0
6060
40C0
0180
0300
0600
0C00
1800
3000
6040
C0C0
FF80
ENDCHAR

STARTCHAR bracketleft
ENCODING 91
SWIDTH 385 0
DWIDTH 7 0
BBX 8 16 0 -4
BITMAP
0F
0C
0C
18
18
18
30
30
30
30
60
60
60
C0
C0
F0
ENDCHAR

STARTCHAR backslash
ENCODING 92
SWIDTH 281 0
DWIDTH 5 0
BBX 3 12 1 0
BITMAP
80
80
C0
C0
C0
C0
40
60
60
60
20
20
ENDCHAR

STARTCHAR bracketright
ENCODING 93
SWIDTH 385 0
DWIDTH 7 0
BBX 8 16 -1 -4
BITMAP
0F
03
03
06
06
06
0C
0C
0C
0C
18
18
18
30
30
F0
ENDCHAR

STARTCHAR asciicircum
ENCODING 94
SWIDTH 573 0
DWIDTH 10 0
BBX 9 6 1 6
BITMAP
0800
1C00
3600
2200
6300
C180
ENDCHAR

STARTCHAR underscore
ENCODING 95
SWIDTH 500 0
DWIDTH 9 0
BBX 9 1 0 -3
BITMAP
FF80
ENDCHAR

STARTCHAR quoteleft
ENCODING 96
SWIDTH 365 0
DWIDTH 6 0
BBX 4 5 3 7
BITMAP
30
40
C0
E0
60
ENDCHAR

STARTCHAR a
ENCODING 97
SWIDTH 594 0
DWIDTH 10 0
BBX 9 8 1 0
BITMAP
1D80
3300
6300
C300
C600
C600
EE80
7700
ENDCHAR

STARTCHAR b
ENCODING 98
SWIDTH 615 0
DWIDTH 10 0
BBX 9 12 1 0
BITMAP
0800
3800
1800
3000
3700
3980
6180
6180
6300
C300
C600
7800
ENDCHAR

STARTCHAR c
ENCODING 99
SWIDTH 500 0
DWIDTH 9 0
BBX 8 8 1 0
BITMAP
0E
33
61
C0
C0
C0
62
3C
ENDCHAR

STARTCHAR d
ENCODING 100
SWIDTH 625 0
DWIDTH 11 0
BBX 10 12 1 0
BITMAP
0040
01C0
00C0
0180
1D80
3380
6300
6300
C600
C600
CE80
7B00
ENDCHAR

STARTCHAR e
ENCODING 101
SWIDTH 510 0
DWIDTH 9 0
BBX 8 8 1 0
BITMAP
0E
33
63
66
F8
C0
C2
7C
ENDCHAR

STARTCHAR f
ENCODING 102
SWIDTH 333 0
DWIDTH 6 0
BBX 12 16 -3 -4
BITMAP
00E0
01B0
0300
0300
0780
0300
0600
0600
0600
0600
0C00
0C00
0C00
9800
D800
7000
ENDCHAR

STARTCHAR g
ENCODING 103
SWIDTH 594 0
DWIDTH 10 0
BBX 12 12 -1 -4
BITMAP
07B0
0CE0
18C0
18C0
1980
0F00
1800
3F00
7F80
8180
C080
7F00
ENDCHAR

STARTCHAR h
ENCODING 104
SWIDTH 625 0
DWIDTH 11 0
BBX 9 12 1 0
BITMAP
0800
3800
1800
3000
3700
3980
6180
6300
6300
C600
C680
C300
ENDCHAR

STARTCHAR i
ENCODING 105
SWIDTH 333 0
DWIDTH 6 0
BBX 5 12 1 0
BITMAP
18
18
00
00
60
B0
30
60
60
C0
D0
60
ENDCHAR

STARTCHAR j
ENCODING 106
SWIDTH 323 0
DWIDTH 5 0
BBX 8 16 -2 -4
BITMAP
03
03
00
00
0C
16
06
06
06
0C
0C
0C
18
18
B0
60
ENDCHAR

STARTCHAR k
ENCODING 107
SWIDTH 625 0
DWIDTH 11 0
BBX 10 12 1 0
BITMAP
0800
3800
1800
1800
3780
38C0
30C0
6180
7E00
6600
C680
C300
ENDCHAR

STARTCHAR l
ENCODING 108
SWIDTH 302 0
DWIDTH 5 0
BBX 5 12 1 0
BITMAP
08
38
18
30
30
30
60
60
60
C0
D0
60
ENDCHAR

STARTCHAR m
ENCODING 109
SWIDTH 1000 0
DWIDTH 17 0
BBX 16 8 1 0
BITMAP
638E
B4D3
38E3
30C6
6186
618C
C30D
C306
ENDCHAR

STARTCHAR n
ENCODING 110
SWIDTH 635 0
DWIDTH 11 0
BBX 9 8 1 0
BITMAP
6300
B580
3980
3300
6300
6600
C680
C300
ENDCHAR

STARTCHAR o
ENCODING 111
SWIDTH 573 0
DWIDTH 10 0
BBX 9 8 1 0
BITMAP
1E00
2300
4180
C180
C180
C100
6200
3C00
ENDCHAR

STARTCHAR p
ENCODING 112
SWIDTH 615 0
DWIDTH 10 0
BBX 11 13 -1 -4
BITMAP
0C00
1F80
2CC0
0C60
1860
1860
1860
38C0
3780
3000
6000
6000
F000
ENDCHAR

STARTCHAR q
ENCODING 113
SWIDTH 594 0
DWIDTH 10 0
BBX 9 12 1 -4
BITMAP
1D80
3380
6300
C300
C300
C600
EE00
7600
0C00
0C00
0C00
1E00
ENDCHAR

STARTCHAR r
ENCODING 114
SWIDTH 479 0
DWIDTH 8 0
BBX 7 8 2 0
BITMAP
6C
B6
30
60
60
60
C0
C0
ENDCHAR

STARTCHAR s
ENCODING 115
SWIDTH 490 0
DWIDTH 8 0
BBX 7 8 1 0
BITMAP
3C
66
70
38
1C
0C
CC
78
ENDCHAR

STARTCHAR t
ENCODING 116
SWIDTH 365 0
DWIDTH 6 0
BBX 5 10 1 0
BITMAP
10
30
78
30
60
60
60
C0
C8
70
ENDCHAR

STARTCHAR u
ENCODING 117
SWIDTH 635 0
DWIDTH 11 0
BBX 9 8 1 0
BITMAP
6180
B180
3300
6300
6600
CE00
D680
6300
ENDCHAR

STARTCHAR v
ENCODING 118
SWIDTH 573 0
DWIDTH 10 0
BBX 9 8 1 0
BITMAP
7900
9980
3080
3080
6100
6100
7200
3C00
ENDCHAR

STARTCHAR w
ENCODING 119
SWIDTH 854 0
DWIDTH 15 0
BBX 13 8 1 0
BITMAP
7990
9998
3108
3308
6308
6710
7590
38E0
ENDCHAR

STARTCHAR x
ENCODING 120
SWIDTH 615 0
DWIDTH 10 0
BBX 10 8 0 0
BITMAP
3080
59C0
0E40
0C00
0C00
1C00
D680
6300
ENDCHAR

STARTCHAR y
ENCODING 121
SWIDTH 552 0
DWIDTH 9 0
BBX 10 12 -1 -4
BITMAP
1880
2CC0
0C40
0C40
0C80
0680
0700
0600
0600
8C00
D800
6000
ENDCHAR

STARTCHAR z
ENCODING 122
SWIDTH 500 0
DWIDTH 9 0
BBX 8 8 0 0
BITMAP
39
7F
42
0C
10
22
7E
9C
ENDCHAR

STARTCHAR braceleft
ENCODING 123
SWIDTH 396 0
DWIDTH 7 0
BBX 7 16 2 -4
BITMAP
06
08
18
18
30
30
20
C0
60
60
60
C0
C0
C0
C0
60
ENDCHAR

STARTCHAR bar
ENCODING 124
SWIDTH 219 0
DWIDTH 4 0
BBX 1 16 1 -4
BITMAP
80
80
80
80
80
80
80
80
80
80
80
80
80
80
80
80
ENDCHAR

STARTCHAR braceright
ENCODING 125
SWIDTH 396 0
DWIDTH 7 0
BBX 7 16 -1 -4
BITMAP
0C
06
06
06
06
0C
0C
0C
06
08
18
18
30
30
20
C0
ENDCHAR

STARTCHAR asciitilde
ENCODING 126
SWIDTH 573 0
DWIDTH 10 0
BBX 8 2 1 5
BITMAP
79
9E
ENDCHAR

STARTCHAR space
ENCODING 160
SWIDTH 250 0
DWIDTH 5 0
BBX 0 0 0 0
BITMAP
ENDCHAR

STARTCHAR afii10023
ENCODING 161
SWIDTH 740 0
DWIDTH 13 0
BBX 13 15 0 0
BITMAP
0330
0330
0000
1FF8
0C10
0C10
1800
1840
1FC0
3080
3000
3000
6020
6060
FFC0
ENDCHAR

STARTCHAR afii10051
ENCODING 162
SWIDTH 865 0
DWIDTH 15 0
BBX 13 12 1 0
BITMAP
7FF8
4610
8610
0C00
0DE0
0E30
1818
1818
1818
3118
31B0
78E0
ENDCHAR

STARTCHAR afii10052
ENCODING 163
SWIDTH 656 0
DWIDTH 13 0
BBX 13 15 0 0
BITMAP
00C0
0180
0000
1FF8
0C18
0C10
1800
1800
1800
3000
3000
3000
6000
6000
F000
ENDCHAR

STARTCHAR afii10053
ENCODING 164
SWIDTH 771 0
DWIDTH 13 0
BBX 12 12 1 0
BITMAP
07E0
1830
3010
6000
6000
FF80
C000
C000
C000
E060
70C0
1F80
ENDCHAR

STARTCHAR afii10054
ENCODING 165
SWIDTH 625 0
DWIDTH 11 0
BBX 9 12 1 0
BITMAP
1F00
3180
6080
7000
3C00
1E00
0700
0300
0300
8300
C600
7C00
ENDCHAR

STARTCHAR afii10055
ENCODING 166
SWIDTH 417 0
DWIDTH 7 0
BBX 7 12 0 0
BITMAP
1E
0C
0C
18
18
18
30
30
30
60
60
F0
ENDCHAR

STARTCHAR afii10056
ENCODING 167
SWIDTH 417 0
DWIDTH 7 0
BBX 9 15 0 0
BITMAP
1980
1980
0000
1E00
0C00
0C00
1800
1800
1800
3000
3000
3000
6000
6000
F000
ENDCHAR

STARTCHAR afii10057
ENCODING 168
SWIDTH 396 0
DWIDTH 7 0
BBX 10 16 -3 -4
BITMAP
03C0
0180
0180
0180
0300
0300
0300
0600
0600
0600
0C00
0C00
0C00
1800
9800
7000
ENDCHAR

STARTCHAR afii10058
ENCODING 169
SWIDTH 1099 0
DWIDTH 19 0
BBX 18 12 0 0
BITMAP
07FC00
021800
021800
023000
043000
043F00
046180
0860C0
0860C0
90C0C0
D0C180
61FF00
ENDCHAR

STARTCHAR afii10059
ENCODING 170
SWIDTH 1125 0
DWIDTH 19 0
BBX 18 12 0 0
BITMAP
1E3C00
0C1800
0C1800
183000
183000
1FFF00
306180
3060C0
3060C0
60C0C0
60C180
F1FF00
ENDCHAR

STARTCHAR afii10060
ENCODING 171
SWIDTH 906 0
DWIDTH 15 0
BBX 13 12 1 0
BITMAP
7FF8
4610
8610
0C00
0DF0
0E18
1818
1818
1818
3030
3030
7878
ENDCHAR

STARTCHAR afii10061
ENCODING 172
SWIDTH 723 0
DWIDTH 12 0
BBX 14 15 0 0
BITMAP
00C0
0180
0000
1E1C
0C34
0C40
1840
1880
1F80
3180
3180
30C0
60C0
60E0
F070
ENDCHAR

STARTCHAR hyphen
ENCODING 173
SWIDTH 458 0
DWIDTH 8 0
BBX 6 1 1 3
BITMAP
FC
ENDCHAR

STARTCHAR afii10062
ENCODING 174
SWIDTH 719 0
DWIDTH 12 0
BBX 12 15 1 0
BITMAP
0CC0
0780
0000
F0F0
6060
6040
3080
3080
3100
1900
1A00
0C00
8C00
C800
7000
ENDCHAR

STARTCHAR afii10145
ENCODING 175
SWIDTH 844 0
DWIDTH 14 0
BBX 14 14 0 -2
BITMAP
1E3C
0C18
0C18
1830
1830
1830
3060
3060
3060
60C0
60C0
FFE0
0C00
0C00
ENDCHAR

STARTCHAR afii10017
ENCODING 176
SWIDTH 708 0
DWIDTH 12 0
BBX 12 12 -1 0
BITMAP
0020
0060
00E0
0160
0260
0460
0460
0FE0
1060
2060
6060
F0F0
ENDCHAR

STARTCHAR afii10018
ENCODING 177
SWIDTH 729 0
DWIDTH 12 0
BBX 11 12 0 0
BITMAP
1FE0
0C60
0C40
1800
1800
1F80
30C0
3060
3060
6060
60C0
FF80
ENDCHAR

STARTCHAR afii10019
ENCODING 178
SWIDTH 750 0
DWIDTH 13 0
BBX 12 12 0 0
BITMAP
1FC0
0C60
0C30
1830
1860
1F80
30C0
3060
3060
6060
60C0
FF80
ENDCHAR

STARTCHAR afii10020
ENCODING 179
SWIDTH 633 0
DWIDTH 13 0
BBX 13 12 0 0
BITMAP
1FF8
0C18
0C10
1800
1800
1800
3000
3000
3000
6000
6000
F000
ENDCHAR

STARTCHAR afii10021
ENCODING 180
SWIDTH 719 0
DWIDTH 12 0
BBX 13 14 -1 -2
BITMAP
0FF8
0430
0430
0860
0860
0860
10C0
10C0
20C0
2180
4180
FFC0
C0C0
8080
ENDCHAR

STARTCHAR afii10022
ENCODING 181
SWIDTH 740 0
DWIDTH 13 0
BBX 13 12 0 0
BITMAP
1FF8
0C10
0C10
1800
1840
1FC0
3080
3000
3000
6020
6060
FFC0
ENDCHAR

STARTCHAR afii10024
ENCODING 182
SWIDTH 915 0
DWIDTH 16 0
BBX 18 12 -1 0
BITMAP
38F1C0
2C6340
046200
02C400
02C800
07F800
0CD800
18CC00
18CC00
318600
618600
E3C700
ENDCHAR

STARTCHAR afii10025
ENCODING 183
SWIDTH 656 0
DWIDTH 11 0
BBX 10 12 1 0
BITMAP
1F00
6180
40C0
00C0
0180
1F00
0300
0180
0180
8180
C700
3C00
ENDCHAR

STARTCHAR afii10026
ENCODING 184
SWIDTH 844 0
DWIDTH 14 0
BBX 14 12 0 0
BITMAP
1E3C
0C18
0C38
1870
18B0
1930
3260
3460
3860
70C0
60C0
F1E0
ENDCHAR

STARTCHAR afii10027
ENCODING 185
SWIDTH 844 0
DWIDTH 14 0
BBX 14 15 0 0
BITMAP
0330
01E0
0000
1E3C
0C18
0C38
1870
18B0
1930
3260
3460
3860
70C0
60C0
F1E0
ENDCHAR

STARTCHAR afii10028
ENCODING 186
SWIDTH 723 0
DWIDTH 12 0
BBX 14 12 0 0
BITMAP
1E1C
0C34
0C40
1840
1880
1F80
3180
3180
30C0
60C0
60E0
F070
ENDCHAR

STARTCHAR afii10029
ENCODING 187
SWIDTH 835 0
DWIDTH 14 0
BBX 14 12 0 0
BITMAP
07FC
0218
0218
0230
0430
0430
0460
0860
0860
90C0
D0C0
61E0
ENDCHAR

STARTCHAR afii10030
ENCODING 188
SWIDTH 979 0
DWIDTH 16 0
BBX 16 12 0 0
BITMAP
1E07
0E0E
0E0E
1616
1626
132C
234C
238C
2318
4318
4218
E23C
ENDCHAR

STARTCHAR afii10031
ENCODING 189
SWIDTH 844 0
DWIDTH 14 0
BBX 14 12 0 0
BITMAP
1E3C
0C18
0C18
1830
1830
1FF0
3060
3060
3060
60C0
60C0
F1E0
ENDCHAR

STARTCHAR afii10032
ENCODING 190
SWIDTH 854 0
DWIDTH 15 0
BBX 12 12 2 0
BITMAP
0780
18E0
3060
6030
6030
C030
C030
C060
C060
60C0
7180
1E00
ENDCHAR

STARTCHAR afii10033
ENCODING 191
SWIDTH 854 0
DWIDTH 14 0
BBX 14 12 0 0
BITMAP
1FFC
0C18
0C18
1830
1830
1830
3060
3060
3060
60C0
60C0
F1E0
ENDCHAR

STARTCHAR afii10034
ENCODING 192
SWIDTH 677 0
DWIDTH 12 0
BBX 12 12 0 0
BITMAP
1FC0
0C60
0C30
1830
1830
1860
3380
3000
3000
6000
6000
F000
ENDCHAR

STARTCHAR afii10035
ENCODING 193
SWIDTH 750 0
DWIDTH 13 0
BBX 11 12 1 0
BITMAP
07C0
1860
3020
6000
6000
C000
C000
C000
C000
60C0
6180
1F00
ENDCHAR

STARTCHAR afii10036
ENCODING 194
SWIDTH 729 0
DWIDTH 12 0
BBX 12 12 1 0
BITMAP
7FF0
C620
8620
0C00
0C00
0C00
1800
1800
1800
3000
3000
7800
ENDCHAR

STARTCHAR afii10037
ENCODING 195
SWIDTH 719 0
DWIDTH 12 0
BBX 12 12 1 0
BITMAP
F0F0
6060
6040
3080
3080
3100
1900
1A00
0C00
8C00
C800
7000
ENDCHAR

STARTCHAR afii10038
ENCODING 196
SWIDTH 1021 0
DWIDTH 17 0
BBX 15 12 1 0
BITMAP
01E0
00C0
0FF8
318C
6186
C186
C306
C30C
6318
3FE0
0600
0F00
ENDCHAR

STARTCHAR afii10039
ENCODING 197
SWIDTH 771 0
DWIDTH 13 0
BBX 13 12 0 0
BITMAP
3C78
1830
1820
0C40
0C80
0700
0600
0B00
1180
2180
60C0
F1E0
ENDCHAR

STARTCHAR afii10040
ENCODING 198
SWIDTH 844 0
DWIDTH 14 0
BBX 14 14 0 -2
BITMAP
1E3C
0C18
0C18
1830
1830
1830
3060
3060
3060
60C0
60C0
FFE0
0060
0040
ENDCHAR

STARTCHAR afii10041
ENCODING 199
SWIDTH 802 0
DWIDTH 14 0
BBX 12 12 2 0
BITMAP
F0F0
6060
6060
60C0
C0C0
C1C0
C380
7D80
0180
0300
0300
0780
ENDCHAR

STARTCHAR afii10042
ENCODING 200
SWIDTH 1083 0
DWIDTH 18 0
BBX 19 12 0 0
BITMAP
1E79E0
0C30C0
0C30C0
186180
186180
186180
30C300
30C300
30C300
618600
618600
FFFF00
ENDCHAR

STARTCHAR afii10043
ENCODING 201
SWIDTH 1083 0
DWIDTH 18 0
BBX 19 14 0 -2
BITMAP
1E79E0
0C30C0
0C30C0
186180
186180
186180
30C300
30C300
30C300
618600
618600
FFFF00
000300
000200
ENDCHAR

STARTCHAR afii10044
ENCODING 202
SWIDTH 823 0
DWIDTH 14 0
BBX 12 12 1 0
BITMAP
7F80
4600
8600
0C00
0C00
0FC0
1860
1830
1830
3030
3060
7FC0
ENDCHAR

STARTCHAR afii10045
ENCODING 203
SWIDTH 1050 0
DWIDTH 18 0
BBX 18 12 0 0
BITMAP
1E03C0
0C0180
0C0180
180300
180300
1F8300
30C600
306600
306600
606C00
60CC00
FF9E00
ENDCHAR

STARTCHAR afii10046
ENCODING 204
SWIDTH 719 0
DWIDTH 12 0
BBX 11 12 0 0
BITMAP
1E00
0C00
0C00
1800
1800
1F80
30C0
3060
3060
6060
60C0
FF80
ENDCHAR

STARTCHAR afii10047
ENCODING 205
SWIDTH 777 0
DWIDTH 13 0
BBX 12 12 1 0
BITMAP
1F00
30C0
2060
0030
0030
1FE0
0060
0060
0060
C0C0
6180
3E00
ENDCHAR

STARTCHAR afii10048
ENCODING 206
SWIDTH 1250 0
DWIDTH 21 0
BBX 20 12 0 0
BITMAP
1E0780
0C18E0
0C3060
186030
186030
1FC030
30C030
30C060
30C060
6060C0
607180
F01E00
ENDCHAR

STARTCHAR afii10049
ENCODING 207
SWIDTH 792 0
DWIDTH 13 0
BBX 13 12 0 0
BITMAP
07F8
0C30
1830
1860
0C60
07E0
0CC0
18C0
18C0
3180
6180
E3C0
ENDCHAR

STARTCHAR afii10065
ENCODING 208
SWIDTH 585 0
DWIDTH 10 0
BBX 9 8 1 0
BITMAP
1D80
3300
6300
C300
C600
C600
EE80
7700
ENDCHAR

STARTCHAR afii10066
ENCODING 209
SWIDTH 573 0
DWIDTH 10 0
BBX 9 12 1 0
BITMAP
0080
0F00
3C00
6000
7C00
E200
C300
C300
C600
C600
CC00
7800
ENDCHAR

STARTCHAR afii10067
ENCODING 210
SWIDTH 514 0
DWIDTH 9 0
BBX 8 8 1 0
BITMAP
1E
73
C2
FC
C6
C6
4C
38
ENDCHAR

STARTCHAR afii10068
ENCODING 211
SWIDTH 378 0
DWIDTH 6 0
BBX 6 8 0 0
BITMAP
38
4C
0C
18
60
C0
C8
70
ENDCHAR

STARTCHAR afii10069
ENCODING 212
SWIDTH 568 0
DWIDTH 10 0
BBX 9 12 1 0
BITMAP
0C00
0200
0300
0100
1D80
6380
6180
C180
C300
C300
4600
3C00
ENDCHAR

STARTCHAR afii10070
ENCODING 213
SWIDTH 517 0
DWIDTH 9 0
BBX 8 8 1 0
BITMAP
0E
33
63
66
F8
C0
C2
7C
ENDCHAR

STARTCHAR afii10072
ENCODING 214
SWIDTH 1083 0
DWIDTH 18 0
BBX 19 8 0 0
BITMAP
3CF1C0
666660
266640
066C00
07FC00
0CCC00
CCCCC0
71E780
ENDCHAR

STARTCHAR afii10073
ENCODING 215
SWIDTH 407 0
DWIDTH 7 0
BBX 7 8 0 0
BITMAP
3C
46
0C
38
0C
0C
98
70
ENDCHAR

STARTCHAR afii10074
ENCODING 216
SWIDTH 635 0
DWIDTH 11 0
BBX 9 8 1 0
BITMAP
6180
B180
3300
6300
6600
CE00
D680
6300
ENDCHAR

STARTCHAR afii10075
ENCODING 217
SWIDTH 635 0
DWIDTH 11 0
BBX 9 11 1 0
BITMAP
3300
1E00
0000
6180
B180
3300
6300
6600
CE00
D680
6300
ENDCHAR

STARTCHAR afii10076
ENCODING 218
SWIDTH 563 0
DWIDTH 9 0
BBX 9 8 0 0
BITMAP
7180
3280
3200
3C00
6600
6600
6300
F300
ENDCHAR

STARTCHAR afii10077
ENCODING 219
SWIDTH 594 0
DWIDTH 10 0
BBX 9 8 0 0
BITMAP
0380
0580
0980
0B00
1300
2600
A680
C700
ENDCHAR

STARTCHAR afii10078
ENCODING 220
SWIDTH 729 0
DWIDTH 12 0
BBX 12 8 -1 0
BITMAP
0630
0670
0EB0
1760
1760
26C0
A4D0
4460
ENDCHAR

STARTCHAR afii10079
ENCODING 221
SWIDTH 635 0
DWIDTH 10 0
BBX 9 8 1 0
BITMAP
E300
6300
6300
7F00
C600
C600
C680
C700
ENDCHAR

STARTCHAR afii10080
ENCODING 222
SWIDTH 573 0
DWIDTH 10 0
BBX 9 8 1 0
BITMAP
1E00
2300
4180
C180
C180
C100
6200
3C00
ENDCHAR

STARTCHAR afii10081
ENCODING 223
SWIDTH 635 0
DWIDTH 11 0
BBX 9 8 1 0
BITMAP
6300
B580
3980
3300
6300
6600
C680
C300
ENDCHAR

STARTCHAR afii10082
ENCODING 224
SWIDTH 612 0
DWIDTH 10 0
BBX 11 13 -1 -4
BITMAP
0C00
1F80
2CC0
0C60
1860
1860
1860
38C0
3780
3000
6000
6000
F000
ENDCHAR

STARTCHAR afii10083
ENCODING 225
SWIDTH 506 0
DWIDTH 9 0
BBX 8 8 1 0
BITMAP
0E
33
61
C0
C0
C0
62
3C
ENDCHAR

STARTCHAR afii10084
ENCODING 226
SWIDTH 1000 0
DWIDTH 17 0
BBX 16 8 1 0
BITMAP
638E
B4D3
38E3
30C6
6186
618C
C30D
C306
ENDCHAR

STARTCHAR afii10085
ENCODING 227
SWIDTH 552 0
DWIDTH 9 0
BBX 10 12 -1 -4
BITMAP
1880
2CC0
0C40
0C40
0C80
0680
0700
0600
0600
8C00
D800
6000
ENDCHAR

STARTCHAR afii10086
ENCODING 228
SWIDTH 781 0
DWIDTH 13 0
BBX 12 16 1 -4
BITMAP
00E0
01B0
0300
0300
3B60
6FB0
6730
C630
C630
CE30
DF60
6DC0
0C00
0C00
D800
7000
ENDCHAR

STARTCHAR afii10087
ENCODING 229
SWIDTH 615 0
DWIDTH 10 0
BBX 10 8 0 0
BITMAP
3080
59C0
0E40
0C00
0C00
1C00
D680
6300
ENDCHAR

STARTCHAR afii10088
ENCODING 230
SWIDTH 625 0
DWIDTH 11 0
BBX 9 10 1 -2
BITMAP
6180
B180
3300
6300
6600
CE00
D680
6300
0300
0600
ENDCHAR

STARTCHAR afii10089
ENCODING 231
SWIDTH 615 0
DWIDTH 10 0
BBX 8 8 1 0
BITMAP
E3
63
63
C6
C6
7C
0D
0E
ENDCHAR

STARTCHAR afii10090
ENCODING 232
SWIDTH 1000 0
DWIDTH 17 0
BBX 16 8 1 0
BITMAP
70C3
B0C3
3186
6186
630C
C71C
CB2D
71C6
ENDCHAR

STARTCHAR afii10091
ENCODING 233
SWIDTH 1000 0
DWIDTH 17 0
BBX 16 10 1 -2
BITMAP
70C3
B0C3
3186
6186
630C
C71C
CB2D
71C6
0006
000C
ENDCHAR

STARTCHAR afii10092
ENCODING 234
SWIDTH 521 0
DWIDTH 9 0
BBX 8 8 0 0
BITMAP
78
98
18
3E
33
63
66
3C
ENDCHAR

STARTCHAR afii10093
ENCODING 235
SWIDTH 781 0
DWIDTH 13 0
BBX 12 8 1 0
BITMAP
70E0
3060
3060
7C60
66C0
C6C0
CCD0
7860
ENDCHAR

STARTCHAR afii10094
ENCODING 236
SWIDTH 510 0
DWIDTH 9 0
BBX 7 8 1 0
BITMAP
70
30
30
7C
66
C6
CC
78
ENDCHAR

STARTCHAR afii10095
ENCODING 237
SWIDTH 483 0
DWIDTH 8 0
BBX 8 8 0 0
BITMAP
3E
43
03
1F
03
86
CE
78
ENDCHAR

STARTCHAR afii10096
ENCODING 238
SWIDTH 867 0
DWIDTH 15 0
BBX 14 8 1 0
BITMAP
E0F0
6118
620C
7E0C
C60C
C608
C310
C1E0
ENDCHAR

STARTCHAR afii10097
ENCODING 239
SWIDTH 603 0
DWIDTH 10 0
BBX 11 8 -1 0
BITMAP
0FE0
18C0
18C0
0FC0
0D80
1980
D980
71C0
ENDCHAR

STARTCHAR afii61352
ENCODING 240
SWIDTH 1135 0
DWIDTH 19 0
BBX 19 12 -1 0
BITMAP
0E0600
060B00
060900
070800
0711C0
099360
099660
09A660
10E6C0
90C380
D0C000
605FC0
ENDCHAR

STARTCHAR afii10071
ENCODING 241
SWIDTH 517 0
DWIDTH 9 0
BBX 9 11 1 0
BITMAP
1980
1980
0000
0E00
3300
6300
6600
F800
C000
C200
7C00
ENDCHAR

STARTCHAR afii10099
ENCODING 242
SWIDTH 631 0
DWIDTH 11 0
BBX 9 15 1 -3
BITMAP
0800
3F00
1800
3000
3700
3980
6180
6300
6300
C300
C600
C600
0600
0400
0800
ENDCHAR

STARTCHAR afii10100
ENCODING 243
SWIDTH 512 0
DWIDTH 9 0
BBX 9 11 0 0
BITMAP
0300
0600
0000
3F80
1980
1900
3000
3000
6000
6000
F000
ENDCHAR

STARTCHAR afii10101
ENCODING 244
SWIDTH 547 0
DWIDTH 8 0
BBX 8 8 0 0
BITMAP
1E
71
60
C0
F8
C2
C6
7C
ENDCHAR

STARTCHAR afii10102
ENCODING 245
SWIDTH 490 0
DWIDTH 8 0
BBX 7 8 1 0
BITMAP
3C
66
70
38
1C
0C
CC
78
ENDCHAR

STARTCHAR afii10103
ENCODING 246
SWIDTH 333 0
DWIDTH 6 0
BBX 5 12 1 0
BITMAP
18
18
00
00
60
B0
30
60
60
C0
D0
60
ENDCHAR

STARTCHAR afii10104
ENCODING 247
SWIDTH 333 0
DWIDTH 6 0
BBX 6 11 1 0
BITMAP
CC
CC
00
60
B0
30
60
60
C0
D0
60
ENDCHAR

STARTCHAR afii10105
ENCODING 248
SWIDTH 323 0
DWIDTH 5 0
BBX 8 16 -2 -4
BITMAP
03
03
00
00
0C
16
06
06
06
0C
0C
0C
18
18
B0
60
ENDCHAR

STARTCHAR afii10106
ENCODING 249
SWIDTH 771 0
DWIDTH 13 0
BBX 13 8 -1 0
BITMAP
03C0
04C0
08C0
09F0
1198
1318
D330
61E0
ENDCHAR

STARTCHAR afii10107
ENCODING 250
SWIDTH 823 0
DWIDTH 14 0
BBX 13 8 0 0
BITMAP
71C0
30C0
30C0
3FF0
6198
6318
6330
F1E0
ENDCHAR

STARTCHAR afii10108
ENCODING 251
SWIDTH 625 0
DWIDTH 11 0
BBX 9 12 1 0
BITMAP
0800
3F00
1800
3000
3700
3980
6180
6300
6300
C600
C680
C300
ENDCHAR

STARTCHAR afii10109
ENCODING 252
SWIDTH 563 0
DWIDTH 9 0
BBX 9 11 0 0
BITMAP
0600
0C00
0000
7180
3280
3200
3C00
6600
6600
6300
F300
ENDCHAR

STARTCHAR section
ENCODING 253
SWIDTH 594 0
DWIDTH 10 0
BBX 10 15 0 -3
BITMAP
0380
04C0
0C40
0C00
1400
1200
1200
1300
1900
0900
0900
0600
8600
CC00
7800
ENDCHAR

STARTCHAR afii10110
ENCODING 254
SWIDTH 552 0
DWIDTH 9 0
BBX 10 15 -1 -4
BITMAP
0CC0
0780
0000
1880
2CC0
0C40
0C40
0C80
0680
0700
0600
0600
8C00
D800
6000
ENDCHAR

STARTCHAR afii10193
ENCODING 255
SWIDTH 635 0
DWIDTH 11 0
BBX 9 10 1 -2
BITMAP
6180
B180
3300
6300
6600
CE00
D680
6300
6000
C000
ENDCHAR
ENDFONT
